<svg width="45" height="45" viewBox="0 0 45 45" fill="none" xmlns="http://www.w3.org/2000/svg">
<path d="M4.49988 10.4999C4.30111 10.4971 4.10377 10.5338 3.91931 10.6079C3.73486 10.6821 3.56698 10.7921 3.42543 10.9317C3.28387 11.0712 3.17147 11.2375 3.09475 11.4209C3.01802 11.6043 2.97852 11.8011 2.97852 11.9999C2.97852 12.1987 3.01802 12.3955 3.09475 12.5789C3.17147 12.7623 3.28387 12.9286 3.42543 13.0681C3.56698 13.2077 3.73486 13.3178 3.91931 13.3919C4.10377 13.466 4.30111 13.5027 4.49988 13.4999H40.4999C40.6986 13.5027 40.896 13.466 41.0804 13.3919C41.2649 13.3178 41.4328 13.2077 41.5743 13.0681C41.7159 12.9286 41.8283 12.7623 41.905 12.5789C41.9817 12.3955 42.0212 12.1987 42.0212 11.9999C42.0212 11.8011 41.9817 11.6043 41.905 11.4209C41.8283 11.2375 41.7159 11.0712 41.5743 10.9317C41.4328 10.7921 41.2649 10.6821 41.0804 10.6079C40.896 10.5338 40.6986 10.4971 40.4999 10.4999H4.49988ZM4.49988 20.9999C4.30111 20.9971 4.10377 21.0338 3.91931 21.1079C3.73486 21.1821 3.56698 21.2921 3.42543 21.4317C3.28387 21.5712 3.17147 21.7375 3.09475 21.9209C3.01802 22.1043 2.97852 22.3011 2.97852 22.4999C2.97852 22.6987 3.01802 22.8955 3.09475 23.0789C3.17147 23.2623 3.28387 23.4286 3.42543 23.5681C3.56698 23.7077 3.73486 23.8178 3.91931 23.8919C4.10377 23.966 4.30111 24.0027 4.49988 23.9999H40.4999C40.6986 24.0027 40.896 23.966 41.0804 23.8919C41.2649 23.8178 41.4328 23.7077 41.5743 23.5681C41.7159 23.4286 41.8283 23.2623 41.905 23.0789C41.9817 22.8955 42.0212 22.6987 42.0212 22.4999C42.0212 22.3011 41.9817 22.1043 41.905 21.9209C41.8283 21.7375 41.7159 21.5712 41.5743 21.4317C41.4328 21.2921 41.2649 21.1821 41.0804 21.1079C40.896 21.0338 40.6986 20.9971 40.4999 20.9999H4.49988ZM4.49988 31.4999C4.30111 31.4971 4.10377 31.5338 3.91931 31.6079C3.73486 31.6821 3.56698 31.7921 3.42543 31.9317C3.28387 32.0712 3.17147 32.2375 3.09475 32.4209C3.01802 32.6043 2.97852 32.8011 2.97852 32.9999C2.97852 33.1987 3.01802 33.3955 3.09475 33.5789C3.17147 33.7623 3.28387 33.9286 3.42543 34.0681C3.56698 34.2077 3.73486 34.3178 3.91931 34.3919C4.10377 34.466 4.30111 34.5027 4.49988 34.4999H40.4999C40.6986 34.5027 40.896 34.466 41.0804 34.3919C41.2649 34.3178 41.4328 34.2077 41.5743 34.0681C41.7159 33.9286 41.8283 33.7623 41.905 33.5789C41.9817 33.3955 42.0212 33.1987 42.0212 32.9999C42.0212 32.8011 41.9817 32.6043 41.905 32.4209C41.8283 32.2375 41.7159 32.0712 41.5743 31.9317C41.4328 31.7921 41.2649 31.6821 41.0804 31.6079C40.896 31.5338 40.6986 31.4971 40.4999 31.4999H4.49988Z" fill="#001C43"/>
</svg>
